<svg width="10" height="8" viewBox="0 0 10 8" fill="none" xmlns="http://www.w3.org/2000/svg">
<path d="M0.5 3.18201C0.223858 3.18201 0 3.40586 0 3.68201C0 3.95815 0.223858 4.18201 0.5 4.18201V3.68201V3.18201ZM9.85355 4.03556C10.0488 3.8403 10.0488 3.52372 9.85355 3.32845L6.67157 0.146473C6.47631 -0.0487893 6.15973 -0.0487893 5.96447 0.146473C5.7692 0.341735 5.7692 0.658318 5.96447 0.85358L8.79289 3.68201L5.96447 6.51043C5.7692 6.7057 5.7692 7.02228 5.96447 7.21754C6.15973 7.4128 6.47631 7.4128 6.67157 7.21754L9.85355 4.03556ZM0.5 3.68201V4.18201H9.5V3.68201V3.18201H0.5V3.68201Z" fill="currentColor"/>
</svg>
