<svg width="33" height="33" viewBox="0 0 33 33" fill="none" xmlns="http://www.w3.org/2000/svg">
<circle cx="16.3061" cy="16.3061" r="15.7625" stroke="currentColor" stroke-width="1.08707"/>
<path d="M16.4326 9.02295C20.4366 9.02302 23.5889 12.2837 23.5889 16.3286V16.3306C23.6023 20.2978 20.4159 23.5218 16.4717 23.5435C15.7284 23.5434 15.2305 23.489 14.7832 23.3452C14.3363 23.2015 13.9011 22.9572 13.3018 22.522L12.875 22.2124L12.5527 22.6294C12.2588 23.0088 11.5695 23.4072 10.9268 23.5435C10.6075 23.6111 10.3827 23.5955 10.2627 23.5493C10.2112 23.5295 10.1908 23.5088 10.1816 23.4966C10.1729 23.4849 10.1524 23.4521 10.1455 23.3726C10.1397 22.2939 9.90046 21.3829 9.65039 20.4595H9.65137C9.35009 19.3089 9.02249 18.0786 9.02246 16.2876C9.02246 12.1511 12.3997 9.02295 16.4326 9.02295ZM16.5654 11.7876C14.2194 11.666 12.4146 13.2626 11.9414 15.6528L11.9004 15.8872C11.7394 16.9081 11.8025 18.0223 11.9629 18.8979C12.0431 19.3357 12.1504 19.7348 12.2783 20.0444C12.3417 20.1978 12.4185 20.3489 12.5107 20.4751C12.5916 20.5857 12.743 20.7584 12.9814 20.8218L12.9932 20.8247C13.2369 20.8837 13.4585 20.7943 13.5615 20.7476C13.6932 20.6878 13.8242 20.6045 13.9414 20.521C14.0589 20.4372 14.1778 20.3407 14.291 20.2427C14.8407 20.5476 15.4495 20.7349 16.0791 20.7856L16.0869 20.7866H16.0957C18.5703 20.9062 20.6809 19.0147 20.8467 16.5376L20.8477 16.5298V16.522C20.9371 14.2145 19.3003 12.2328 17.0811 11.8511V11.8149L16.5654 11.7876Z" stroke="currentColor" stroke-width="1.08707"/>
</svg>
