<svg width="1266" height="517" viewBox="0 0 1266 517" fill="none" xmlns="http://www.w3.org/2000/svg">
<g clip-path="url(#clip0_232_33)">
<circle opacity="0.6" cx="1171.83" cy="535.835" r="919.624" transform="rotate(-32.7296 1171.83 535.835)" fill="white"/>
<path d="M1521.8 -335.999C1346.47 -234.416 1170.81 226.452 1338.88 784.742C900.835 399.968 408.639 368.342 243.411 485.643C247.473 1067.91 975.278 1399.72 1305.72 1268.78C855.364 1184.35 626.554 972.341 552.302 712.818C820.983 710.412 1116.6 853.577 1430.71 1181.04C1466.27 1173 1506.31 1154.67 1556.08 1122.68C1605.85 1090.69 1639.16 1061.88 1661.24 1032.88C1493.82 611.126 1486.37 282.754 1600.16 39.3437C1805.4 214.679 1903.22 510.876 1792.97 955.613C2049.33 709.41 2049.78 -90.4633 1521.8 -335.999Z" fill="#F2F2F2"/>
<path d="M714.261 -187.159C804.072 -185.653 1000.72 -167.672 1216.25 12.1578C1202.52 57.9963 1180.12 157.533 1185.54 246.597C1080.02 99.7109 973.757 -2.27228 793.395 -64.0354C774.667 125.686 823.301 264.71 913.093 421.703C834.325 379.78 734.475 358.818 687.078 352.263C613.01 81.5151 678.329 -104.836 714.261 -187.159Z" fill="#F2F2F2"/>
</g>
<defs>
<clipPath id="clip0_232_33">
<rect width="1379" height="517" fill="white"/>
</clipPath>
</defs>
</svg>
