<svg width="973" height="699" viewBox="0 0 973 699" fill="none" xmlns="http://www.w3.org/2000/svg">
<path d="M912.663 0.121645C799.098 -5.11964 576.39 159.111 486.364 473.591C396.337 159.111 173.629 -5.11964 60.0644 0.121645C-114.646 276.167 128.203 653.546 323.881 691.982C136.939 515.522 93.2594 346.052 136.939 201.042C264.478 281.408 360.571 438.65 409.489 688.49C428.71 695.477 453.169 698.972 486.364 698.972C519.559 698.972 544.018 695.477 563.239 688.49C612.157 438.65 708.25 281.408 835.788 201.042C879.468 346.052 835.788 515.522 648.847 691.982C844.524 653.546 1087.37 276.167 912.663 0.121645Z" fill="white"/>
</svg>
