<svg width="1300" height="1604" viewBox="0 0 1300 1604" fill="none" xmlns="http://www.w3.org/2000/svg">
<path fill-rule="evenodd" clip-rule="evenodd" d="M649.972 1178.1H769.046L883.454 1304.18L649.972 1603.03L416.49 1304.18L530.898 1178.1H649.972ZM759.709 1313.52L649.972 1481.62L540.235 1313.52L575.258 1278.5H649.972H724.686L759.709 1313.52Z" fill="#F2F2F2"/>
<path d="M1219.65 190.48C1067.89 183.476 770.269 402.948 649.96 823.209C529.652 402.948 232.032 183.476 80.2681 190.48C-153.209 559.379 171.327 1063.69 432.824 1115.06C183.001 879.244 124.629 652.77 183.001 458.983C353.44 566.382 481.855 776.515 547.227 1110.39C572.914 1119.73 605.6 1124.4 649.96 1124.4C694.321 1124.4 727.007 1119.73 752.694 1110.39C818.066 776.515 946.481 566.382 1116.92 458.983C1175.29 652.77 1116.92 879.244 867.097 1115.06C1128.59 1063.69 1453.13 559.379 1219.65 190.48Z" fill="#F2F2F2"/>
<path d="M649.983 -43C706.018 -5.64326 822.759 85.4141 885.798 286.207C858.56 309.555 804.081 363.253 771.394 421.626C764.386 286.207 738.704 178.806 649.983 66.7357C561.262 178.806 535.58 286.207 528.572 421.626C495.886 363.253 441.406 309.555 414.168 286.207C477.207 85.4141 593.948 -5.64326 649.983 -43Z" fill="#F2F2F2"/>
</svg>
