<svg width="52" height="42" viewBox="0 0 52 42" fill="none" xmlns="http://www.w3.org/2000/svg">
<path d="M26.0995 28.3155C26.0995 21.3887 28.3016 15.5193 32.7057 10.7075C37.1099 5.84288 43.2652 2.2737 51.1715 0V6.10727C41.3018 9.227 36.367 13.6686 36.367 19.4322C36.367 20.9128 36.8711 22.0232 37.8793 22.7635C38.9406 23.5037 40.0814 24.2704 41.3018 25.0636C42.5753 25.8039 43.7162 26.7557 44.7244 27.9189C45.7856 29.0294 46.3162 30.695 46.3162 32.9158C46.3162 35.7711 45.4142 37.9655 43.6101 39.499C41.8059 40.9795 39.4977 41.7198 36.6854 41.7198C33.4486 41.7198 30.8751 40.5301 28.9648 38.1506C27.0546 35.7711 26.0995 32.4928 26.0995 28.3155ZM0 28.3155C0 21.3887 2.20209 15.5193 6.60627 10.7075C11.0104 5.84288 17.1657 2.2737 25.072 0V6.10727C15.2024 9.227 10.2676 13.6686 10.2676 19.4322C10.2676 20.9128 10.7717 22.0232 11.7799 22.7635C12.8411 23.5037 13.9819 24.2704 15.2024 25.0636C16.4759 25.8039 17.6167 26.7557 18.6249 27.9189C19.6862 29.0294 20.2168 30.695 20.2168 32.9158C20.2168 35.7711 19.3147 37.9655 17.5106 39.499C15.7065 40.9795 13.3983 41.7198 10.5859 41.7198C7.34914 41.7198 4.77562 40.5301 2.86537 38.1506C0.955123 35.7711 0 32.4928 0 28.3155Z" fill="white"/>
</svg>
