<svg width="212" height="111" viewBox="0 0 212 111" fill="none" xmlns="http://www.w3.org/2000/svg">
<g clip-path="url(#clip0_232_89)">
<path d="M61.9698 104.083C62.0418 104.677 62.2488 105.114 62.5908 105.393C62.9418 105.672 63.4098 105.811 63.9948 105.811C64.3998 105.811 64.7238 105.744 64.9668 105.609C65.2188 105.465 65.4123 105.276 65.5473 105.042C65.6823 104.808 65.7723 104.538 65.8173 104.232C65.8623 103.917 65.8848 103.588 65.8848 103.246V96.9555H66.7623V103.273C66.7623 103.696 66.7218 104.11 66.6408 104.515C66.5598 104.911 66.4158 105.267 66.2088 105.582C66.0018 105.888 65.7093 106.136 65.3313 106.325C64.9533 106.514 64.4853 106.608 63.9273 106.608C63.1083 106.608 62.4468 106.41 61.9428 106.014C61.4478 105.618 61.1508 104.974 61.0518 104.083H61.9698ZM70.929 96.9555H77.2065V97.7655H71.8065V101.356H76.6665V102.166H71.8065V105.69H77.2065V106.5H70.929V96.9555ZM82.5301 106.5L79.9381 96.9555H80.9506L83.2186 105.69L85.4191 96.9555H86.8366L89.0236 105.69L91.2916 96.9555H92.2906L89.6986 106.5H88.3351L86.1076 97.752L83.9071 106.5H82.5301ZM95.5459 96.9555H101.823V97.7655H96.4234V101.356H101.283V102.166H96.4234V105.69H101.823V106.5H95.5459V96.9555ZM105.541 106.5V96.9555H106.418V105.69H111.818V106.5H105.541ZM115.417 106.5V96.9555H116.294V105.69H121.694V106.5H115.417ZM125.293 96.9555H131.57V97.7655H126.17V101.356H131.03V102.166H126.17V105.69H131.57V106.5H125.293V96.9555ZM136.165 102.774V106.5H135.288V96.9555H138.811C139.306 96.9555 139.761 97.0095 140.175 97.1175C140.589 97.2165 140.944 97.383 141.241 97.617C141.538 97.842 141.768 98.1435 141.93 98.5215C142.092 98.8905 142.173 99.345 142.173 99.885C142.173 100.614 141.984 101.208 141.606 101.667C141.228 102.126 140.683 102.445 139.972 102.625L142.051 106.5H141.079L139.068 102.774H136.165ZM138.501 101.964C138.861 101.964 139.207 101.937 139.54 101.883C139.882 101.829 140.179 101.725 140.431 101.572C140.683 101.41 140.886 101.194 141.039 100.924C141.192 100.645 141.268 100.286 141.268 99.8445C141.268 99.4305 141.201 99.0885 141.066 98.8185C140.94 98.5485 140.76 98.337 140.526 98.184C140.301 98.031 140.031 97.923 139.716 97.86C139.401 97.797 139.059 97.7655 138.69 97.7655H136.165V101.964H138.501ZM151.32 96.9555H152.333L148.971 102.895V106.5H148.094V102.895L144.705 96.9555H145.745L148.553 101.991L151.32 96.9555Z" fill="#18090E"/>
<path d="M15.8028 87.1758C13.8926 87.1758 12.4043 86.6573 11.3379 85.6202C10.2715 84.5772 9.73828 83.1182 9.73828 81.2432C9.73828 79.2158 10.251 77.6836 11.2764 76.6465C12.3018 75.6034 13.8223 75.082 15.8379 75.082C17.0625 75.082 18.378 75.2315 19.7842 75.5303L19.8369 78.1055H19.2568L18.9931 76.5762C18.583 76.3242 18.1054 76.1309 17.5605 75.9962C17.0215 75.8555 16.4707 75.7851 15.9082 75.7851C14.4023 75.7851 13.3037 76.2276 12.6123 77.1123C11.9209 77.997 11.5752 79.3681 11.5752 81.2256C11.5752 82.9365 11.9355 84.2431 12.6562 85.1455C13.3828 86.0478 14.4375 86.499 15.8203 86.499C16.4883 86.499 17.1181 86.42 17.7099 86.2617C18.3018 86.0976 18.7705 85.8808 19.1161 85.6113L19.4413 83.8535H20.0127L19.9599 86.622C18.6709 86.9912 17.2851 87.1758 15.8028 87.1758ZM21.8844 86.5342L23.3961 86.2968V75.9083L21.8844 75.6796V75.2139H30.7261V78.0351H30.1461L29.8648 76.128C29.2086 76.0459 28.2594 76.0048 27.0172 76.0048H25.0924V80.6103H28.2741L28.5465 79.2041H29.109V82.8252H28.5465L28.2741 81.4014H25.0924V86.209H27.4128C28.9245 86.209 29.9146 86.1621 30.3834 86.0683L30.8844 83.8887H31.4644L31.2975 87H21.8844V86.5342ZM40.2708 78.7032C40.2708 77.7363 40.0452 77.045 39.594 76.6288C39.1428 76.2129 38.3841 76.0048 37.3176 76.0048H36.4563V81.5859H37.3704C38.3605 81.5859 39.0901 81.3603 39.5589 80.9092C40.0335 80.458 40.2708 79.7226 40.2708 78.7032ZM36.4563 82.377V86.2968L38.3284 86.5342V87H33.3625V86.5342L34.7601 86.2968V75.9083L33.2482 75.6796V75.2139H37.6956C40.5784 75.2139 42.0198 76.3712 42.0198 78.6855C42.0198 79.8926 41.6536 80.8095 40.9212 81.4365C40.1946 82.0635 39.1486 82.377 37.7835 82.377H36.4563ZM48.6552 87H43.6278V86.5342L45.1395 86.3057V75.917L43.6278 75.6796V75.2139H52.7772L52.9354 78.5976H52.3642L51.8193 76.1455C51.2332 76.0282 50.3163 75.9698 49.0683 75.9698H46.8358V86.3057L48.6552 86.5342V87ZM54.394 86.5342L55.9057 86.2968V75.9083L54.394 75.6796V75.2139H63.2359V78.0351H62.6557L62.3745 76.128C61.7182 76.0459 60.769 76.0048 59.5269 76.0048H57.6021V80.6103H60.7837L61.0561 79.2041H61.6186V82.8252H61.0561L60.7837 81.4014H57.6021V86.209H59.9224C61.4341 86.209 62.4243 86.1621 62.893 86.0683L63.394 83.8887H63.9742L63.8071 87H54.394V86.5342ZM65.758 87V86.5342L67.2697 86.2968V75.9083L65.758 75.6796V75.2139H70.4778V75.6796L68.9659 75.9083V84.4248L74.5119 76.2597V75.9083L73.0002 75.6796V75.2139H77.7111V75.6796L76.1994 75.9083V86.2968L77.7111 86.5342V87H73.0002V86.5342L74.5119 86.2968V77.666L68.9659 85.831V86.2968L70.4778 86.5342V87H65.758ZM71.7609 74.2032C70.6887 74.2032 69.8889 74.0097 69.3615 73.623C68.8401 73.2363 68.5647 72.6093 68.5353 71.7421H69.9768C70.0119 72.3457 70.1818 72.8028 70.4865 73.1133C70.7911 73.4238 71.2159 73.5791 71.7609 73.5791C72.3058 73.5791 72.7306 73.4238 73.0353 73.1133C73.3401 72.8028 73.5099 72.3457 73.5451 71.7421H74.9865C74.9572 72.6153 74.6788 73.2451 74.1516 73.6318C73.63 74.0127 72.8332 74.2032 71.7609 74.2032ZM91.0434 87H90.7357L86.4204 76.8661V86.2968L88.0024 86.5342V87H83.9857V86.5342L85.4976 86.2968V75.9083L83.9857 75.6796V75.2139H87.5542L91.3861 84.1786L95.5698 75.2139H98.9448V75.6796L97.4331 75.9083V86.2968L98.9448 86.5342V87H94.1635V86.5342L95.7456 86.2968V76.8661L91.0434 87ZM100.412 75.6796V75.2139H105.308V75.6796L103.814 75.9083L107.285 81.9903L110.414 75.9083L109.096 75.6796V75.2139H112.576V75.6796L111.46 75.9083L107.602 83.1855C106.928 84.4571 106.409 85.33 106.046 85.8046C105.689 86.2792 105.319 86.628 104.939 86.8506C104.564 87.0673 104.136 87.1758 103.655 87.1758C103.392 87.1758 103.131 87.1407 102.873 87.0704C102.615 87 102.402 86.9092 102.232 86.7978L102.152 84.6796H102.548L102.979 85.5322C103.078 85.6669 103.207 85.7724 103.365 85.8486C103.529 85.9248 103.693 85.9629 103.858 85.9629C104.285 85.9629 104.689 85.7754 105.07 85.4004C105.457 85.0254 105.856 84.4424 106.266 83.6514L101.739 75.9083L100.412 75.6796ZM115.731 86.2968L117.19 86.5342V87H113.341V86.5342L114.641 86.2968L118.649 80.9707L115.23 75.9083L113.903 75.6796V75.2139H118.763V75.6796L117.269 75.9083L119.713 79.5468L122.446 75.9083L120.987 75.6796V75.2139H124.845V75.6796L123.545 75.9083L120.231 80.3204L124.283 86.2968L125.619 86.5342V87H120.759V86.5342L122.253 86.2968L119.159 81.7266L115.731 86.2968ZM130.365 86.5342V87H126.489V86.5342L127.825 86.2968L131.841 75.1171H133.511L137.686 86.2968L139.18 86.5342V87H134.197V86.5342L135.779 86.2968L134.61 82.8955H129.969L128.783 86.2968L130.365 86.5342ZM132.254 76.3829L130.233 82.1045H134.337L132.254 76.3829ZM147.222 78.7032C147.222 77.7363 146.996 77.045 146.545 76.6288C146.094 76.2129 145.335 76.0048 144.269 76.0048H143.407V81.5859H144.321C145.312 81.5859 146.041 81.3603 146.51 80.9092C146.984 80.458 147.222 79.7226 147.222 78.7032ZM143.407 82.377V86.2968L145.279 86.5342V87H140.313V86.5342L141.711 86.2968V75.9083L140.199 75.6796V75.2139H144.646C147.529 75.2139 148.971 76.3712 148.971 78.6855C148.971 79.8926 148.605 80.8095 147.872 81.4365C147.145 82.0635 146.1 82.377 144.734 82.377H143.407ZM157.092 87.1758C155.181 87.1758 153.693 86.6573 152.626 85.6202C151.56 84.5772 151.027 83.1182 151.027 81.2432C151.027 79.2158 151.539 77.6836 152.565 76.6465C153.591 75.6034 155.11 75.082 157.126 75.082C158.35 75.082 159.666 75.2315 161.073 75.5303L161.125 78.1055H160.545L160.282 76.5762C159.871 76.3242 159.394 76.1309 158.85 75.9962C158.31 75.8555 157.759 75.7851 157.197 75.7851C155.691 75.7851 154.593 76.2276 153.901 77.1123C153.21 77.997 152.863 79.3681 152.863 81.2256C152.863 82.9365 153.225 84.2431 153.945 85.1455C154.671 86.0478 155.725 86.499 157.108 86.499C157.777 86.499 158.407 86.42 158.998 86.2617C159.591 86.0976 160.059 85.8808 160.405 85.6113L160.729 83.8535H161.301L161.248 86.622C159.96 86.9912 158.574 87.1758 157.092 87.1758ZM174.211 75.2139V75.6796L172.849 75.9083L169.114 79.8808L173.448 86.2968L174.721 86.5342V87H171.751L167.884 81.1113L166.381 82.456V86.2968L168.069 86.5342V87H163.173V86.5342L164.685 86.2968V75.9083L163.173 75.6796V75.2139H167.893V75.6796L166.381 75.9083V81.5068L171.646 75.9083L170.521 75.6796V75.2139H174.211ZM175.539 87V86.5342L177.051 86.2968V75.9083L175.539 75.6796V75.2139H180.259V75.6796L178.747 75.9083V84.4248L184.293 76.2597V75.9083L182.781 75.6796V75.2139H187.492V75.6796L185.98 75.9083V86.2968L187.492 86.5342V87H182.781V86.5342L184.293 86.2968V77.666L178.747 85.831V86.2968L180.259 86.5342V87H175.539ZM188.907 87V86.5342L190.419 86.2968V75.9083L188.907 75.6796V75.2139H193.626V75.6796L192.115 75.9083V84.4248L197.661 76.2597V75.9083L196.149 75.6796V75.2139H200.86V75.6796L199.348 75.9083V86.2968L200.86 86.5342V87H196.149V86.5342L197.661 86.2968V77.666L192.115 85.831V86.2968L193.626 86.5342V87H188.907ZM194.91 74.2032C193.837 74.2032 193.038 74.0097 192.51 73.623C191.989 73.2363 191.713 72.6093 191.683 71.7421H193.125C193.161 72.3457 193.33 72.8028 193.635 73.1133C193.939 73.4238 194.365 73.5791 194.91 73.5791C195.454 73.5791 195.879 73.4238 196.183 73.1133C196.489 72.8028 196.659 72.3457 196.693 71.7421H198.135C198.106 72.6153 197.827 73.2451 197.301 73.6318C196.779 74.0127 195.982 74.2032 194.91 74.2032Z" fill="#18090E"/>
<path d="M0 63H96" stroke="#18090E" stroke-width="1.5"/>
<path d="M115.501 63H211.501" stroke="#18090E" stroke-width="1.5"/>
<path fill-rule="evenodd" clip-rule="evenodd" d="M106.116 46.1044H110.457L114.627 50.7001L106.116 61.5938L97.6055 50.7001L101.776 46.1044H106.116ZM110.116 51.0405L106.116 57.1681L102.116 51.0405L103.393 49.764H106.116H108.84L110.116 51.0405Z" fill="#18090E"/>
<path d="M126.882 10.1044C121.35 9.84908 110.501 17.8491 106.116 33.1682C101.73 17.8491 90.8817 9.84908 85.3497 10.1044C76.8392 23.5512 88.6689 41.9342 98.2008 43.8065C89.0945 35.2107 86.9667 26.9555 89.0945 19.8917C95.3072 23.8065 99.9881 31.4661 102.371 43.6364C103.307 43.9767 104.499 44.1469 106.116 44.1469C107.733 44.1469 108.924 43.9767 109.86 43.6364C112.243 31.4661 116.924 23.8065 123.137 19.8917C125.265 26.9555 123.137 35.2107 114.031 43.8065C123.563 41.9342 135.392 23.5512 126.882 10.1044Z" fill="#18090E"/>
<path d="M106.116 1.59375C108.159 2.95545 112.414 6.2746 114.712 13.5937C113.719 14.4448 111.733 16.4022 110.542 18.5299C110.286 13.5937 109.35 9.67885 106.116 5.59375C102.882 9.67885 101.946 13.5937 101.691 18.5299C100.499 16.4022 98.5134 14.4448 97.5205 13.5937C99.8184 6.2746 104.074 2.95545 106.116 1.59375Z" fill="#18090E"/>
</g>
<defs>
<clipPath id="clip0_232_89">
<rect width="211.5" height="111" fill="white"/>
</clipPath>
</defs>
</svg>
