<svg width="1379" height="1301" viewBox="0 0 1379 1301" fill="none" xmlns="http://www.w3.org/2000/svg">
<g clip-path="url(#clip0_232_27)">
<circle opacity="0.6" cx="689.5" cy="598.5" r="689.5" fill="white"/>
<path fill-rule="evenodd" clip-rule="evenodd" d="M693.972 1178.1H813.046L927.454 1304.18L693.972 1603.03L460.49 1304.18L574.898 1178.1H693.972ZM803.709 1313.52L693.972 1481.62L584.235 1313.52L619.258 1278.5H693.972H768.686L803.709 1313.52Z" fill="#F2F2F2"/>
<path d="M1263.65 190.48C1111.89 183.476 814.269 402.948 693.96 823.209C573.652 402.948 276.032 183.476 124.268 190.48C-109.209 559.379 215.327 1063.69 476.824 1115.06C227.001 879.244 168.629 652.77 227.001 458.983C397.44 566.382 525.855 776.515 591.227 1110.39C616.914 1119.73 649.6 1124.4 693.96 1124.4C738.321 1124.4 771.007 1119.73 796.694 1110.39C862.066 776.515 990.481 566.382 1160.92 458.983C1219.29 652.77 1160.92 879.244 911.097 1115.06C1172.59 1063.69 1497.13 559.379 1263.65 190.48Z" fill="#F2F2F2"/>
<path d="M693.983 -43C750.018 -5.64326 866.759 85.4141 929.798 286.207C902.56 309.555 848.081 363.253 815.394 421.626C808.386 286.207 782.704 178.806 693.983 66.7357C605.262 178.806 579.58 286.207 572.572 421.626C539.886 363.253 485.406 309.555 458.168 286.207C521.207 85.4141 637.948 -5.64326 693.983 -43Z" fill="#F2F2F2"/>
</g>
<defs>
<clipPath id="clip0_232_27">
<rect width="1379" height="1301" fill="white"/>
</clipPath>
</defs>
</svg>
