<svg width="0" height="0" class="hidden">
  <symbol fill="none" xmlns="http://www.w3.org/2000/svg" viewBox="0 0 14 22" id="ic_arr_hor">
    <path d="M12.7598 0.376221L0.759766 10.8762L12.7598 21.3762" stroke="currentColor"></path>
  </symbol>
  <symbol fill="none" xmlns="http://www.w3.org/2000/svg" viewBox="0 0 12 6" id="ic_arr_ver">
    <path d="M1 0.5L6 4.5L11 0.5" stroke="currentColor"></path>
  </symbol>
  <symbol fill="none" xmlns="http://www.w3.org/2000/svg" viewBox="0 0 22 8" id="ic_arrow_hor">
    <path d="M21.3536 4.03556C21.5488 3.8403 21.5488 3.52372 21.3536 3.32845L18.1716 0.146473C17.9763 -0.0487893 17.6597 -0.0487893 17.4645 0.146473C17.2692 0.341735 17.2692 0.658318 17.4645 0.85358L20.2929 3.68201L17.4645 6.51043C17.2692 6.7057 17.2692 7.02228 17.4645 7.21754C17.6597 7.4128 17.9763 7.4128 18.1716 7.21754L21.3536 4.03556ZM0 3.68201V4.18201H21V3.68201V3.18201H0V3.68201Z" fill="currentColor"></path>
  </symbol>
  <symbol fill="none" xmlns="http://www.w3.org/2000/svg" viewBox="0 0 10 8" id="ic_arrow_short_hor">
    <path d="M0.5 3.18201C0.223858 3.18201 0 3.40586 0 3.68201C0 3.95815 0.223858 4.18201 0.5 4.18201V3.68201V3.18201ZM9.85355 4.03556C10.0488 3.8403 10.0488 3.52372 9.85355 3.32845L6.67157 0.146473C6.47631 -0.0487893 6.15973 -0.0487893 5.96447 0.146473C5.7692 0.341735 5.7692 0.658318 5.96447 0.85358L8.79289 3.68201L5.96447 6.51043C5.7692 6.7057 5.7692 7.02228 5.96447 7.21754C6.15973 7.4128 6.47631 7.4128 6.67157 7.21754L9.85355 4.03556ZM0.5 3.68201V4.18201H9.5V3.68201V3.18201H0.5V3.68201Z" fill="currentColor"></path>
  </symbol>
  <symbol fill="none" xmlns="http://www.w3.org/2000/svg" viewBox="0 0 8 15" id="ic_arrow_ver">
    <path d="M3.32809 14.3536C3.52335 14.5488 3.83993 14.5488 4.03519 14.3536L7.21717 11.1716C7.41244 10.9763 7.41244 10.6597 7.21717 10.4645C7.02191 10.2692 6.70533 10.2692 6.51007 10.4645L3.68164 13.2929L0.853213 10.4645C0.657951 10.2692 0.341368 10.2692 0.146106 10.4645C-0.0491559 10.6597 -0.049156 10.9763 0.146106 11.1716L3.32809 14.3536ZM3.68164 0L3.18164 -2.18557e-08L3.18164 14L3.68164 14L4.18164 14L4.18164 2.18557e-08L3.68164 0Z" fill="currentColor"></path>
  </symbol>
  <symbol fill="none" xmlns="http://www.w3.org/2000/svg" viewBox="0 0 16 16" id="ic_cart">
    <path d="M5.60002 4.33333H10.4C12.6667 4.33333 12.8934 5.39333 13.0467 6.68666L13.6467 11.6867C13.84 13.3267 13.3334 14.6667 11 14.6667H5.00668C2.66668 14.6667 2.16002 13.3267 2.36002 11.6867L2.96002 6.68666C3.10669 5.39333 3.33335 4.33333 5.60002 4.33333Z" stroke="currentColor" stroke-width="1.5" stroke-linecap="round" stroke-linejoin="round"></path>
    <path d="M5.33301 5.33333V3C5.33301 2 5.99967 1.33333 6.99967 1.33333H8.99967C9.99967 1.33333 10.6663 2 10.6663 3V5.33333" stroke="currentColor" stroke-width="1.5" stroke-linecap="round" stroke-linejoin="round"></path>
    <path d="M13.6063 11.3529H5.33301" stroke="currentColor" stroke-width="1.5" stroke-linecap="round" stroke-linejoin="round"></path>
  </symbol>
  <symbol fill="none" xmlns="http://www.w3.org/2000/svg" viewBox="0 0 12 11" id="ic_diamond">
    <path fill-rule="evenodd" clip-rule="evenodd" d="M5.6738 0H8.5674L11.3476 3.0638L5.6738 10.3262L0 3.0638L2.7802 0H5.6738ZM8.3405 3.2907L5.6738 7.3758L3.0071 3.2907L3.8582 2.4397H5.6738H7.4894L8.3405 3.2907Z" fill="currentColor"></path>
  </symbol>
  <symbol fill="none" xmlns="http://www.w3.org/2000/svg" viewBox="0 0 33 33" id="ic_max">
    <circle cx="16.3061" cy="16.3061" r="15.7625" stroke="currentColor" stroke-width="1.08707"></circle>
    <path d="M16.4326 9.02295C20.4366 9.02302 23.5889 12.2837 23.5889 16.3286V16.3306C23.6023 20.2978 20.4159 23.5218 16.4717 23.5435C15.7284 23.5434 15.2305 23.489 14.7832 23.3452C14.3363 23.2015 13.9011 22.9572 13.3018 22.522L12.875 22.2124L12.5527 22.6294C12.2588 23.0088 11.5695 23.4072 10.9268 23.5435C10.6075 23.6111 10.3827 23.5955 10.2627 23.5493C10.2112 23.5295 10.1908 23.5088 10.1816 23.4966C10.1729 23.4849 10.1524 23.4521 10.1455 23.3726C10.1397 22.2939 9.90046 21.3829 9.65039 20.4595H9.65137C9.35009 19.3089 9.02249 18.0786 9.02246 16.2876C9.02246 12.1511 12.3997 9.02295 16.4326 9.02295ZM16.5654 11.7876C14.2194 11.666 12.4146 13.2626 11.9414 15.6528L11.9004 15.8872C11.7394 16.9081 11.8025 18.0223 11.9629 18.8979C12.0431 19.3357 12.1504 19.7348 12.2783 20.0444C12.3417 20.1978 12.4185 20.3489 12.5107 20.4751C12.5916 20.5857 12.743 20.7584 12.9814 20.8218L12.9932 20.8247C13.2369 20.8837 13.4585 20.7943 13.5615 20.7476C13.6932 20.6878 13.8242 20.6045 13.9414 20.521C14.0589 20.4372 14.1778 20.3407 14.291 20.2427C14.8407 20.5476 15.4495 20.7349 16.0791 20.7856L16.0869 20.7866H16.0957C18.5703 20.9062 20.6809 19.0147 20.8467 16.5376L20.8477 16.5298V16.522C20.9371 14.2145 19.3003 12.2328 17.0811 11.8511V11.8149L16.5654 11.7876Z" stroke="currentColor" stroke-width="1.08707"></path>
  </symbol>
  <symbol fill="none" xmlns="http://www.w3.org/2000/svg" viewBox="0 0 9 10" id="ic_sep_arr">
    <path d="M8.25 4.76318L3.80041 6.58254L0 9.52632L0.649187 4.76318L0 4.3869e-05L3.80041 2.94383L8.25 4.76318Z" fill="currentColor"></path>
  </symbol>
  <symbol fill="none" xmlns="http://www.w3.org/2000/svg" viewBox="0 0 34 34" id="ic_tg">
    <path d="M16.8486 0.543457V-7.80821e-05H16.8486L16.8486 0.543457ZM33.1553 16.8491H33.6988V16.8491L33.1553 16.8491ZM16.8486 33.1558L16.8486 33.6993H16.8486V33.1558ZM0.542969 16.8491L-0.000566363 16.8491V16.8491H0.542969ZM24.8604 11.7202L24.333 11.5887L24.3307 11.598L24.3287 11.6074L24.8604 11.7202ZM23.7246 10.4497L23.9202 10.9568L23.9349 10.9512L23.9493 10.9446L23.7246 10.4497ZM8.01855 16.5063L7.82297 15.9992L7.81621 16.0019L8.01855 16.5063ZM7.82227 17.8013L7.98416 17.2824L7.98148 17.2816L7.82227 17.8013ZM11.8535 19.0591L11.6916 19.5779L11.9312 19.6527L12.1435 19.5188L11.8535 19.0591ZM21.1846 13.1724L20.9027 12.7075L20.8946 12.7127L21.1846 13.1724ZM21.6982 13.3433L21.3374 12.9367L21.3341 12.9397L21.6982 13.3433ZM14.1367 20.1665L13.7726 19.763L13.6091 19.9105L13.5944 20.1303L14.1367 20.1665ZM13.8594 24.3228L13.317 24.2866L13.2784 24.8663H13.8594V24.3228ZM14.6748 23.9155L14.2959 23.5258L14.2959 23.5258L14.6748 23.9155ZM16.6338 22.0112L16.9567 21.574L16.5857 21.2999L16.2549 21.6215L16.6338 22.0112ZM20.708 25.021L20.385 25.4582L20.414 25.4795L20.4454 25.4969L20.708 25.021ZM22.1855 24.3247L21.6538 24.2119L21.6535 24.2138L22.1855 24.3247ZM16.8486 0.543457V1.08699C25.5539 1.08699 32.6115 8.14393 32.6117 16.8491L33.1553 16.8491L33.6988 16.8491C33.6986 7.5435 26.1542 -7.80821e-05 16.8486 -7.80821e-05V0.543457ZM33.1553 16.8491H32.6117C32.6117 25.5545 25.554 32.6122 16.8486 32.6122V33.1558V33.6993C26.1544 33.6993 33.6988 26.1549 33.6988 16.8491H33.1553ZM16.8486 33.1558L16.8486 32.6122C8.14345 32.612 1.0865 25.5544 1.0865 16.8491H0.542969H-0.000566363C-0.000566363 26.1547 7.54301 33.6991 16.8486 33.6993L16.8486 33.1558ZM0.542969 16.8491L1.0865 16.8491C1.08671 8.14403 8.14355 1.0872 16.8486 1.08699L16.8486 0.543457L16.8486 -7.80821e-05C7.54317 0.000138938 -0.000349343 7.54366 -0.000566363 16.8491L0.542969 16.8491ZM24.8604 11.7202L25.3877 11.8518C25.5522 11.1925 25.4595 10.5643 25.0421 10.1605C24.6171 9.74924 24.0119 9.72235 23.4999 9.95479L23.7246 10.4497L23.9493 10.9446C24.1547 10.8514 24.2542 10.9108 24.2862 10.9417C24.3259 10.9801 24.4424 11.15 24.333 11.5887L24.8604 11.7202ZM23.7246 10.4497L23.529 9.94257L7.82299 15.9992L8.01855 16.5063L8.21412 17.0135L23.9202 10.9568L23.7246 10.4497ZM8.01855 16.5063L7.81621 16.0019C7.51273 16.1236 7.25165 16.2701 7.05337 16.4453C6.85861 16.6174 6.68192 16.8568 6.65131 17.1606C6.61865 17.4849 6.76408 17.7552 6.96177 17.942C7.15013 18.12 7.39944 18.2402 7.66305 18.321L7.82227 17.8013L7.98148 17.2816C7.81002 17.229 7.73234 17.1745 7.70843 17.1519C7.69884 17.1428 7.70809 17.1485 7.71851 17.1727C7.73005 17.1995 7.73647 17.2342 7.73291 17.2696C7.72614 17.3368 7.69467 17.3293 7.77317 17.2599C7.84816 17.1936 7.98838 17.1041 8.2209 17.0108L8.01855 16.5063ZM7.82227 17.8013L7.66037 18.3201L11.6916 19.5779L11.8535 19.0591L12.0154 18.5402L7.98416 17.2824L7.82227 17.8013ZM11.8535 19.0591L12.1435 19.5188L21.4746 13.6321L21.1846 13.1724L20.8946 12.7127L11.5635 18.5994L11.8535 19.0591ZM21.1846 13.1724L21.4664 13.6371C21.5279 13.5999 21.578 13.5833 21.607 13.5773C21.6463 13.5692 21.6215 13.5842 21.555 13.5615C21.5187 13.549 21.4473 13.5169 21.3823 13.4399C21.31 13.3543 21.2728 13.2442 21.2767 13.1354C21.2802 13.038 21.3148 12.9743 21.3291 12.9515C21.3442 12.9275 21.3524 12.9235 21.3374 12.9368L21.6982 13.3433L22.0591 13.7498C22.1726 13.649 22.3531 13.4545 22.3631 13.1741C22.3688 13.0146 22.3158 12.8606 22.213 12.7388C22.1175 12.6256 22.0008 12.565 21.907 12.533C21.7257 12.4709 21.5378 12.4817 21.3877 12.5126C21.2272 12.5456 21.0615 12.6113 20.9027 12.7076L21.1846 13.1724ZM21.6982 13.3433L21.3341 12.9397L13.7726 19.763L14.1367 20.1665L14.5009 20.57L22.0624 13.7468L21.6982 13.3433ZM14.1367 20.1665L13.5944 20.1303L13.317 24.2866L13.8594 24.3228L14.4017 24.3589L14.679 20.2027L14.1367 20.1665ZM13.8594 24.3228V24.8663C14.1564 24.8663 14.4003 24.7957 14.6128 24.669C14.8036 24.5554 14.9541 24.4021 15.0537 24.3052L14.6748 23.9155L14.2959 23.5258C14.168 23.6501 14.1146 23.7005 14.0564 23.7351C14.0201 23.7568 13.9699 23.7792 13.8594 23.7792V24.3228ZM14.6748 23.9155L15.0537 24.3053L17.0126 22.401L16.6338 22.0112L16.2549 21.6215L14.2959 23.5258L14.6748 23.9155ZM16.6338 22.0112L16.3108 22.4484L20.385 25.4582L20.708 25.021L21.031 24.5838L16.9567 21.574L16.6338 22.0112ZM20.708 25.021L20.4454 25.4969C20.8837 25.7387 21.4008 25.8762 21.8815 25.6594C22.3649 25.4413 22.609 24.9566 22.7176 24.4357L22.1855 24.3247L21.6535 24.2138C21.5753 24.5886 21.4556 24.6589 21.4344 24.6685C21.4104 24.6793 21.2822 24.717 20.9706 24.5451L20.708 25.021ZM22.1855 24.3247L22.7172 24.4375L25.392 11.833L24.8604 11.7202L24.3287 11.6074L21.6539 24.2119L22.1855 24.3247Z" fill="currentColor"></path>
  </symbol>
  <symbol fill="none" xmlns="http://www.w3.org/2000/svg" viewBox="0 0 16 16" id="ic_user">
    <path d="M8.00033 8C9.84127 8 11.3337 6.50761 11.3337 4.66667C11.3337 2.82572 9.84127 1.33333 8.00033 1.33333C6.15938 1.33333 4.66699 2.82572 4.66699 4.66667C4.66699 6.50761 6.15938 8 8.00033 8Z" stroke="currentColor" stroke-width="1.5" stroke-linecap="round" stroke-linejoin="round"></path>
    <path d="M13.7268 14.6667C13.7268 12.0867 11.1601 10 8.0001 10C4.8401 10 2.27344 12.0867 2.27344 14.6667" stroke="currentColor" stroke-width="1.5" stroke-linecap="round" stroke-linejoin="round"></path>
  </symbol>
</svg>